<svg width="12" height="12" viewBox="0 0 12 12" fill="none" xmlns="http://www.w3.org/2000/svg">
<path d="M5.6 11.2C4.11479 11.2 2.69041 10.61 1.6402 9.5598C0.589998 8.50959 0 7.08521 0 5.6C0 4.11479 0.589998 2.69041 1.6402 1.6402C2.69041 0.589998 4.11479 0 5.6 0C7.08521 0 8.50959 0.589998 9.5598 1.6402C10.61 2.69041 11.2 4.11479 11.2 5.6C11.2 7.08521 10.61 8.50959 9.5598 9.5598C8.50959 10.61 7.08521 11.2 5.6 11.2ZM8.18125 3.18719C7.94719 3.01656 7.61906 3.06906 7.44844 3.30312L4.83656 6.895L3.69687 5.75531C3.49125 5.54969 3.15875 5.54969 2.95531 5.75531C2.75188 5.96094 2.74969 6.29344 2.95531 6.49687L4.53031 8.07187C4.63969 8.18125 4.78844 8.23594 4.94156 8.225C5.09469 8.21406 5.23469 8.13531 5.32437 8.01063L8.29719 3.92C8.46781 3.68594 8.41531 3.35781 8.18125 3.18719Z" fill="black" fill-opacity="0.9"/>
</svg>
